<svg width="24" height="24" viewBox="0 0 24 24" fill="none" xmlns="http://www.w3.org/2000/svg">
<path d="M13.5 12C13.5 12.83 12.83 13.5 12 13.5C11.17 13.5 10.5 12.83 10.5 12C10.5 11.17 11.17 10.5 12 10.5C12.83 10.5 13.5 11.17 13.5 12ZM21.5 12C21.5 17.24 17.24 21.5 12 21.5C6.76 21.5 2.5 17.24 2.5 12C2.5 6.76 6.76 2.5 12 2.5C17.24 2.5 21.5 6.76 21.5 12ZM16.69 7.31006C16.31 6.94006 15.78 6.78992 15.26 6.91992L11.21 7.92993C9.58999 8.33993 8.33999 9.58996 7.92999 11.21L6.92001 15.26C6.79001 15.78 6.94 16.3099 7.31 16.6899C7.6 16.9699 7.98 17.1299 8.37 17.1299C8.49 17.1299 8.61999 17.1101 8.73999 17.0801L12.79 16.0701C14.41 15.6601 15.66 14.41 16.07 12.79L17.08 8.73999C17.21 8.21999 17.06 7.69006 16.69 7.31006Z" fill="#B6B7C0"/>
</svg>
