<svg width="24" height="24" viewBox="0 0 24 24" fill="none" xmlns="http://www.w3.org/2000/svg">
<path fill-rule="evenodd" clip-rule="evenodd" d="M7.21052 5.79643C6.82 5.40591 6.18684 5.40591 5.79631 5.79643C5.40579 6.18696 5.40579 6.82012 5.79631 7.21065L10.5857 12L5.79631 16.7894C5.40579 17.1799 5.40579 17.8131 5.79631 18.2036C6.18684 18.5941 6.82 18.5941 7.21052 18.2036L11.9999 13.4142L16.7893 18.2036C17.1798 18.5941 17.813 18.5941 18.2035 18.2036C18.594 17.8131 18.594 17.1799 18.2035 16.7894L13.4141 12L18.2035 7.21065C18.594 6.82012 18.594 6.18696 18.2035 5.79643C17.813 5.40591 17.1798 5.40591 16.7893 5.79643L11.9999 10.5858L7.21052 5.79643Z" fill="#B6B7C0"/>
</svg>
