<svg width="24" height="24" viewBox="0 0 24 24" fill="none" xmlns="http://www.w3.org/2000/svg">
<path d="M20.9342 11.6304L17.8202 14.6226L18.5552 18.8435C18.6752 19.5325 18.3972 20.2195 17.8292 20.6355C17.2502 21.0585 16.4942 21.1166 15.8562 20.7876L12.0002 18.7905L8.1442 20.7876C7.8702 20.9296 7.5732 20.9995 7.2782 20.9995C6.8882 20.9995 6.50118 20.8765 6.17118 20.6355C5.60418 20.2195 5.3252 19.5325 5.4452 18.8435L6.18018 14.6226L3.0662 11.6304C2.5562 11.1404 2.37318 10.4195 2.58918 9.74951C2.80718 9.07151 3.38517 8.58857 4.09717 8.48657L8.40619 7.86938L10.3322 4.02441C10.6482 3.39241 11.2882 3.00049 12.0002 3.00049C12.7122 3.00049 13.3522 3.39341 13.6682 4.02441L15.5942 7.86938L19.9032 8.48657C20.6142 8.58857 21.1922 9.07151 21.4102 9.74951C21.6262 10.4195 21.4442 11.1404 20.9342 11.6304Z" fill="#B6B7C0"/>
</svg>
