<svg width="24" height="24" viewBox="0 0 24 24" fill="none" xmlns="http://www.w3.org/2000/svg">
<path d="M20.5 18C20.5 19.93 18.93 21.5 17 21.5H14.53V19C14.53 17.62 13.41 16.5 12.03 16.5C10.65 16.5 9.53003 17.62 9.53003 19V21.5H7C5.07 21.5 3.5 19.93 3.5 18V13.3501C4.3 13.7601 5.18999 14 5.98999 14C7.11999 14 8.22 13.53 9 12.78C9.77 13.53 10.87 14 12 14C13.13 14 14.23 13.53 15 12.78C15.78 13.53 16.88 14 18.01 14C18.81 14 19.7 13.7601 20.5 13.3501V18ZM21.474 8.84204L20.386 5.5769C19.773 3.7359 18.057 2.5 16.117 2.5H7.883C5.943 2.5 4.22801 3.7359 3.61401 5.5769L2.526 8.84204C2.509 8.89404 2.5 8.94598 2.5 9.00098C2.503 10.931 4.06799 12.5 5.98999 12.5C7.17799 12.5 8.31801 11.9189 8.99701 11.0339C9.67001 11.9189 10.809 12.5 12 12.5C13.191 12.5 14.33 11.9189 15.003 11.0339C15.682 11.9189 16.823 12.5 18.01 12.5C19.931 12.5 21.497 10.931 21.5 9.00098C21.5 8.94598 21.491 8.89404 21.474 8.84204Z" fill="#B6B7C0"/>
</svg>
