<svg width="24" height="24" viewBox="0 0 24 24" fill="none" xmlns="http://www.w3.org/2000/svg">
<path d="M12.0001 4.65002C7.22008 4.65002 3.33008 8.54002 3.33008 13.32C3.33008 18.1 7.22008 22 12.0001 22C16.7801 22 20.6701 18.11 20.6701 13.33C20.6701 8.55002 16.7801 4.65002 12.0001 4.65002ZM12.7501 13C12.7501 13.41 12.4101 13.75 12.0001 13.75C11.5901 13.75 11.2501 13.41 11.2501 13V8.00002C11.2501 7.59002 11.5901 7.25002 12.0001 7.25002C12.4101 7.25002 12.7501 7.59002 12.7501 8.00002V13Z" fill="#B6B7C0"/>
<path d="M14.8901 3.45H9.11014C8.71014 3.45 8.39014 3.13 8.39014 2.73C8.39014 2.33 8.71014 2 9.11014 2H14.8901C15.2901 2 15.6101 2.32 15.6101 2.72C15.6101 3.12 15.2901 3.45 14.8901 3.45Z" fill="#B6B7C0"/>
</svg>
